<?xml version="1.0" encoding="utf-8"?>
<!DOCTYPE svg PUBLIC "-//W3C//DTD SVG 1.0//EN" "http://www.w3.org/TR/2001/REC-SVG-20010904/DTD/svg10.dtd">
<svg version="1.0" xmlns="http://www.w3.org/2000/svg" width="1078px" height="253px" viewBox="0 0 1078 253" preserveAspectRatio="xMidYMid meet">
 <g fill="#04e886">
  <path d="M665 127 l0 -106 7 0 7 0 0 106 0 106 -7 0 -7 0 0 -106z"/>
  <path d="M95.8 207.3 c-2.1 -0.3 -3.8 -0.8 -3.8 -1.3 0 -0.4 -1.1 -1.1 -2.4 -1.4 -2.4 -0.6 -61.6 -58.9 -61.6 -60.6 0 -0.5 -0.7 -1.3 -1.5 -1.8 -3.6 -2 -3.7 -19.1 -0.2 -22.7 0.9 -0.9 1.7 -2 1.7 -2.4 0 -0.8 55.4 -56.2 59.2 -59.1 1.5 -1.2 4.4 -2.4 6.3 -2.7 1.9 -0.3 3.5 -1 3.5 -1.4 0 -1.2 4.7 -1.2 5.4 0 0.3 0.4 2.1 1.1 4.1 1.4 4.4 0.7 8.9 4.2 18.9 14.6 4.5 4.6 13.2 13.6 19.4 20 6.2 6.4 11.5 12.6 11.9 13.8 0.3 1.3 0.9 2.3 1.4 2.3 0.5 0 0.9 3.2 0.9 7 0 3.9 -0.4 7 -0.8 7 -0.4 0 -1.4 1.5 -2 3.4 -1.2 3.3 -24.4 27.6 -26.3 27.6 -0.5 0 -0.9 0.6 -0.9 1.3 -0.1 0.6 -1.9 2.6 -4 4.2 -2.1 1.7 -3.9 3.6 -4 4.3 -0.1 2.7 -3.2 0.8 -9.7 -5.8 -3.7 -3.9 -6.9 -7.5 -7.1 -8 -0.2 -0.4 6.7 -7.7 15.2 -16.2 11 -10.8 15.6 -16.1 15.6 -17.6 0 -1.6 -5 -7.4 -16.9 -19.3 -9.3 -9.3 -17.4 -16.9 -18 -16.9 -1.1 0 -54.1 52.6 -54.1 53.7 0 1.2 52.8 53.3 54 53.3 0.7 0 5 -3.8 9.7 -8.5 4.7 -4.7 8.8 -8.5 9.3 -8.5 0.9 0 15 13.9 15 14.7 0 0.8 -20.5 20.6 -23.6 22.9 -3.1 2.2 -8.7 3.3 -14.6 2.7z"/>
  <path d="M960.5 203.5 c-21.7 -4.8 -37.7 -17 -49.2 -37.5 -4.2 -7.3 -7.2 -18.5 -7.9 -29 -2.1 -32.4 18.7 -62.6 50.4 -72.7 21.2 -6.8 48.2 -2.3 65.5 11.1 l4.8 3.7 3.3 -2.1 c4.1 -2.5 5.1 -2.5 7.6 0 1.8 1.8 2 3.3 2 13.1 0 12.4 -0.8 14.9 -4.8 14.9 -3.6 0 -20.9 -5.8 -22.7 -7.7 -2.2 -2.1 -1.8 -6 0.7 -7.7 2.8 -2 1.5 -3.5 -6.6 -8.1 -20.4 -11.2 -44.4 -9.3 -63.7 5.2 -25.9 19.5 -30.4 57.3 -10 83 8.5 10.6 23.4 19 37.6 21.3 3.8 0.6 7.5 1.6 8.2 2.2 0.7 0.6 1.3 2.7 1.3 4.8 0 6.9 -4.2 8.3 -16.5 5.5z"/>
  <path d="M732.6 202.4 c-1.4 -1.4 -1.6 -9.1 -1.6 -69.9 0 -60.8 0.2 -68.5 1.6 -69.9 2.2 -2.2 14.6 -2.2 16.8 0 1.4 1.4 1.6 8.5 1.6 63 l0 61.4 28.8 0 c21.1 0 29.1 0.3 30 1.2 1.6 1.6 1.6 13 0 14.6 -0.9 0.9 -10.8 1.2 -38.4 1.2 -32.5 0 -37.5 -0.2 -38.8 -1.6z"/>
  <path d="M819.2 201.8 c-1.7 -1.7 -1.7 -136.9 0 -138.6 1.6 -1.6 70 -1.7 72.9 -0.2 2.8 1.5 2.8 11.5 0 13 -1.2 0.6 -12.4 1 -29.5 1 l-27.6 0 0 22.5 0 22.5 26.4 0 c30 0 29.6 -0.1 29.6 7.5 0 7.6 0.4 7.5 -29.6 7.5 l-26.4 0 0 25.5 0 25.5 29.1 0 c18.1 0 29.8 0.4 31 1 1.5 0.9 1.9 2.2 1.9 6.3 0 2.9 -0.5 5.8 -1.2 6.5 -1.7 1.7 -74.9 1.7 -76.6 0z"/>
  <path d="M987.1 201.2 c-2.4 -4.4 -0.8 -10.2 2.7 -10.2 0.8 0 3.6 -1.1 6.4 -2.5 6.8 -3.4 9.4 -3.3 11.8 0.8 1.1 1.7 2 3.5 2 4 0 2.6 -10.7 8.1 -18.7 9.4 -2.4 0.4 -3.3 0.1 -4.2 -1.5z"/>
  <path d="M362.5 192.3 c-1.6 -0.3 -3.2 -0.8 -3.5 -1.3 -0.3 -0.4 -2 -1.5 -3.8 -2.4 -7.3 -3.8 -11.6 -16.7 -9.2 -28 1 -5.1 2 -6.7 6.4 -11.2 3.3 -3.3 6.5 -5.4 8.7 -5.9 1.9 -0.4 3.7 -1.3 4.1 -1.9 0.5 -0.7 6.5 -1.2 17.3 -1.5 l16.5 -0.3 0 -8.7 c0 -15.1 -3.2 -18.6 -17 -18.6 -7.5 0 -8.9 0.3 -12 2.5 -1.9 1.4 -4.1 3.3 -4.8 4.3 -1.9 2.4 -3.7 2.1 -7.2 -1.3 -1.7 -1.6 -4.2 -3.7 -5.5 -4.6 -1.4 -0.9 -2.5 -2.4 -2.5 -3.4 0 -3.1 9.4 -11.6 14 -12.7 1.4 -0.3 3.1 -1.1 3.9 -1.7 1.8 -1.4 32.9 -1.5 33.9 -0.1 0.4 0.6 2.5 1.6 4.7 2.4 5 1.8 10.3 7.1 13.5 13.6 2.5 4.9 2.5 5.5 2.8 33.3 l0.4 28.2 3.9 0 3.9 0 0 9.5 0 9.5 -7 0 c-3.9 0 -7.8 -0.4 -8.8 -0.9 -0.9 -0.5 -3.2 -1.6 -4.9 -2.3 -1.8 -0.7 -3.3 -1.6 -3.3 -2 0 -0.3 -0.7 -1.3 -1.5 -2.2 -0.8 -0.8 -2.1 -3.1 -2.8 -5.2 -1.5 -4.6 -3.4 -5.4 -4.3 -2 -0.3 1.4 -1 2.6 -1.4 2.6 -0.5 0 -1.2 0.9 -1.5 2.1 -0.9 2.7 -3.1 4.8 -8 7.8 -3.3 2 -5.5 2.5 -13 2.7 -4.9 0.1 -10.3 0 -12 -0.3z m29.7 -17 c2 -1 4 -2.6 4.3 -3.5 0.4 -1 1.1 -1.8 1.6 -1.8 0.6 0 0.9 -3.6 0.7 -8.7 l-0.3 -8.8 -9.4 -0.3 c-7.2 -0.2 -10.2 0.1 -13 1.4 -5.8 2.7 -7.1 4.9 -7.1 11.7 0 5.3 0.3 6.2 3.1 8.8 2.8 2.6 3.8 2.9 9.7 2.9 4.1 0 8 -0.6 10.4 -1.7z"/>
  <path d="M186 131 l0 -61 28.8 0 c26.9 0 41.9 1 43.2 2.8 0.3 0.5 1.9 1.4 3.6 2.1 4.8 1.9 10.6 8 13.9 14.6 2.9 5.8 3 6.5 3 19 -0.1 12.7 -0.1 13.1 -3.3 19 -1.7 3.3 -3.9 6.9 -4.9 8 -3 3.4 -8.9 7.4 -11.9 8.1 -1.6 0.4 -3.2 1.2 -3.6 1.8 -0.5 0.7 -8.3 1.3 -22.5 1.6 l-21.8 0.5 -0.3 22.3 -0.2 22.2 -12 0 -12 0 0 -61z m63.3 -8.3 c1.5 -1.2 2.7 -2.8 2.7 -3.5 0 -0.7 0.5 -1.2 1 -1.2 0.6 0 1 -3.6 1 -8.9 0 -16.2 -2.8 -18.1 -26.1 -18.1 -10.7 0 -15.9 0.4 -16.7 1.2 -0.8 0.8 -1.2 6 -1.2 17 l0 15.8 18.3 0 c17.7 0 18.5 -0.1 21 -2.3z"/>
  <path d="M314.5 191.1 c-1.1 -0.5 -4.1 -1.3 -6.7 -2 -5.3 -1.2 -8.9 -4.4 -11.8 -10.3 -1.9 -4 -2 -6.2 -2 -56.5 l0 -52.3 11.5 0 11.5 0 0.2 51.3 0.3 51.2 6.3 0.3 6.2 0.3 0 9.4 0 9.5 -6.7 -0.1 c-3.8 0 -7.7 -0.4 -8.8 -0.8z"/>
  <path d="M472 191.1 c-0.8 -0.5 -3.7 -1.4 -6.5 -2 -6.3 -1.5 -12.2 -7.4 -13.1 -13.1 -0.4 -2.2 -1 -4 -1.5 -4 -0.5 0 -0.9 -13.3 -0.9 -29.5 l0 -29.5 -6.5 0 -6.5 0 0 -8.9 0 -8.8 5.5 -0.6 c3.9 -0.4 6.3 -1.3 8 -2.9 2.3 -2.1 2.5 -3 2.5 -12 l0 -9.8 10.5 0 10.5 0 0.1 10.8 c0.1 5.9 0.2 11.4 0.3 12.2 0.1 1.2 2 1.6 9.4 1.8 l9.2 0.3 0 8.9 0 8.9 -9.2 0.3 -9.3 0.3 0 29.5 0 29.5 8.3 0.3 8.2 0.3 0 9.4 0 9.5 -8.7 -0.1 c-4.9 0 -9.5 -0.4 -10.3 -0.8z"/>
  <path d="M506 181.5 c0 -7.2 0.4 -10.6 1.3 -11.2 0.6 -0.4 3.4 -3.7 6.2 -7.3 2.7 -3.6 5.5 -6.9 6.2 -7.3 0.7 -0.4 1.3 -1.5 1.3 -2.3 0 -0.8 0.7 -1.7 1.5 -2 0.9 -0.4 2.1 -1.6 2.8 -2.9 1.5 -2.9 6.5 -9.1 9.5 -11.8 1.2 -1.1 2.2 -2.7 2.2 -3.4 0 -0.7 0.4 -1.3 0.8 -1.3 0.5 0 2.4 -2.1 4.2 -4.7 1.9 -2.7 4 -5.2 4.7 -5.6 0.7 -0.4 1.3 -1.4 1.3 -2 0 -0.7 0.9 -2 2 -3 1.1 -0.9 2 -2.1 2 -2.7 0 -0.6 -8 -1 -22.5 -1 l-22.5 0 0 -9 0 -9 37 0 37 0 0 8.6 c0 7.2 -0.3 9.1 -2.2 11.7 -1.2 1.8 -2.8 3.6 -3.5 4 -0.7 0.4 -1.3 1.3 -1.3 1.9 0 0.6 -1 2.1 -2.2 3.3 -1.3 1.3 -2.7 2.9 -3.3 3.7 -0.5 0.7 -3.1 3.9 -5.7 7 -2.7 3.1 -4.8 6.1 -4.8 6.6 0 0.6 -0.4 1.2 -0.9 1.4 -0.5 0.2 -3.1 3.2 -6 6.8 -2.8 3.6 -5.6 7.2 -6.3 8 -4.5 5.1 -9.8 12.6 -9.8 13.7 0 1 4.6 1.3 23 1.3 l23 0 0 9.5 0 9.5 -37.5 0 -37.5 0 0 -10.5z"/>
  <path d="M596 143.5 l0 -48.5 9.5 0 9.5 0 0 48.5 0 48.5 -9.5 0 -9.5 0 0 -48.5z"/>
  <path d="M1034.2 162 c-1.2 -0.5 -2.5 -1.7 -2.9 -2.6 -0.8 -2.1 3.3 -18.5 4.9 -19.6 2.1 -1.3 8 -0.4 9.2 1.4 1.2 2 -0.6 12.1 -3.2 17.7 -1.8 3.8 -4.1 4.7 -8 3.1z"/>
  <path d="M601.5 79.3 c-5.8 -2.8 -9.3 -11.2 -6.2 -14.9 4.2 -5.2 7.2 -7.4 10.2 -7.4 2.7 0 9.5 3.9 9.5 5.5 0 0.6 0.7 2.3 1.5 3.9 0.9 1.6 1.2 3.2 0.8 3.5 -0.5 0.3 -1.3 1.9 -1.8 3.6 -0.6 1.6 -2.3 3.6 -4 4.5 -1.7 0.8 -3.1 1.8 -3.3 2.3 -0.5 1 -3.3 0.6 -6.7 -1z"/>
 </g>
 <g fill="#fed766">
  <path d="M1014.5 185.4 c-3.3 -3.6 -3.1 -5.4 0.8 -9.5 1.7 -1.9 4.4 -4.9 6 -6.7 1.5 -1.8 3.6 -3.2 4.7 -3.2 3.3 0 7 3 7 5.5 0 4.1 -11.1 16.5 -14.7 16.5 -0.8 0 -2.5 -1.2 -3.8 -2.6z"/>
  <path d="M1037.2 132.1 c-1.7 -1 -5 -17.4 -4.1 -19.9 0.4 -1.1 2.1 -2.4 3.8 -3 5.3 -1.9 8.3 2.6 9.7 14.6 0.5 4.7 0.3 6.2 -1.1 7.5 -1.7 1.8 -6.1 2.2 -8.3 0.8z"/>
 </g>
</svg>