<?xml version="1.0" encoding="UTF-8"?>
<svg xmlns="http://www.w3.org/2000/svg" version="1.1" viewBox="0 0 339.1 343.7">
  <defs>
    <style>
      .cls-1 {
        fill: #fed766;
      }

      .cls-2 {
        fill: #02ea8b;
      }

      @keyframes fadeInOut {
      0% { opacity: 0; }
      50% { opacity: 1; }
      100% { opacity: 0; }
    }

    #dot-1 {
      animation: fadeInOut 4s infinite;
    }

    #dot-2 {
      animation: fadeInOut 4s infinite;
      animation-delay: 1s;
    }

    #dot-3 {
      animation: fadeInOut 4s infinite;
      animation-delay: 2s;
    }

    #dot-4 {
      animation: fadeInOut 4s infinite 1s;
      animation-delay: 3s;
    }
    </style>
  </defs>
  <!-- Generator: Adobe Illustrator 28.7.2, SVG Export Plug-In . SVG Version: 1.2.0 Build 154)  -->
  <g>
    <g id="Capa_1">
      <path id="arrow" class="cls-2" d="M291.8,116.2c3-2.2,4.8-5.6,4.8-9.3v-38c0-4.3-2.5-8.2-6.3-10.2s-8.4-1.6-11.9.9l-7.4,5.3c-26.2-23.5-59.9-36.4-95.2-36.4-78.7,0-142.6,64-142.6,142.6s59.1,138.2,134.6,142.4c.2,0,.4,0,.6,0,2.9,0,5.7-1.1,7.8-3.1,2.3-2.2,3.6-5.2,3.6-8.4v-5.7c0-6.1-4.8-11.1-10.8-11.4-60.1-3.5-107.2-53.5-107.2-113.8s51.1-114,114-114,51,8.8,71.2,24.9l-4.5,3.2c-3.5,2.5-5.3,6.7-4.7,11s3.6,7.8,7.6,9.2l35.9,12.3c3.5,1.2,7.4.6,10.4-1.5Z"/>
      <path id="dot-4" class="cls-2" d="M238.4,278.7c-2.8-4.5-8.5-6.1-13.2-3.6-7.6,4-15.6,7.3-23.9,9.5-5.1,1.4-8.2,6.5-7.1,11.7l1.2,5.6c.6,2.7,2.2,5,4.6,6.5,1.6,1,3.4,1.5,5.2,1.5s1.7-.1,2.6-.4c10.4-2.8,20.4-6.8,29.9-11.9,2.4-1.3,4.2-3.5,4.9-6.2.7-2.6.3-5.5-1.1-7.8l-3-4.9Z"/>
      <path id="dot-3" class="cls-1" d="M284.9,238.9l-4.8-3c-4.5-2.8-10.4-1.6-13.4,2.7-5,7-10.8,13.4-17.2,19-4,3.5-4.5,9.5-1.3,13.6l3.5,4.5c1.7,2.1,4.2,3.5,6.9,3.8.3,0,.6,0,.9,0,2.4,0,4.7-.9,6.5-2.5,8.1-7.1,15.3-15.2,21.6-23.9,1.6-2.2,2.2-5,1.6-7.7-.5-2.7-2.2-5.1-4.5-6.5Z"/>
      <path id="dot-2" class="cls-2" d="M306.3,182.2l-5.7-.6c-5.2-.5-10,3.1-10.9,8.3-1.4,8.5-3.7,16.8-7,24.8-2,4.9.2,10.5,4.9,12.7l5.2,2.5c1.4.6,2.8,1,4.3,1s2.4-.2,3.6-.7c2.6-1,4.6-2.9,5.6-5.5,4.1-10,7-20.4,8.7-31,.4-2.7-.2-5.4-1.9-7.6-1.7-2.2-4.2-3.6-6.9-3.9Z"/>
      <path id="dot-1" class="cls-1" d="M286.3,137.5c2.5,8.2,4.1,16.7,4.7,25.3.4,5.2,4.7,9.2,9.9,9.2s0,0,.1,0h5.7c2.7-.1,5.4-1.3,7.2-3.3,1.9-2,2.8-4.7,2.6-7.4-.8-10.7-2.7-21.4-5.9-31.7-.8-2.6-2.6-4.8-5.1-6-2.5-1.2-5.3-1.4-7.9-.4l-5.4,2c-4.9,1.8-7.6,7.2-6.1,12.2Z"/>
    </g>
  </g>
</svg>